{"scene":0,"asset":{"generator":"ImageToStl.com","version":"2.0"},"scenes":[{"name":"Scene","nodes":[0]}],"nodes":[{"name":"Node0","children":[1]},{"name":"Node1","mesh":0,"children":[2,3,4,5,6,7,8,9,10,11,12,13,14,15,16,17,18,19,20,21,22,23,24,25,26]},{"name":"Node2","mesh":1},{"name":"Node3","mesh":2},{"name":"Node4","mesh":3},{"name":"Node5","mesh":4},{"name":"Node6","mesh":5},{"name":"Node7","mesh":6},{"name":"Node8","mesh":7},{"name":"Node9","mesh":8},{"name":"Node10","mesh":9},{"name":"Node11","mesh":10},{"name":"Node12","mesh":11},{"name":"Node13","mesh":12},{"name":"Node14","mesh":13},{"name":"Node15","mesh":14},{"name":"Node16","mesh":15},{"name":"Node17","mesh":16},{"name":"Node18","mesh":17},{"name":"Node19","mesh":18},{"name":"Node20","mesh":19},{"name":"Node21","mesh":20},{"name":"Node22","mesh":21},{"name":"Node23","mesh":22},{"name":"Node24","mesh":23},{"name":"Node25","mesh":24},{"name":"Node26","mesh":25}],"materials":[{"name":"#BEBEBEFF","pbrMetallicRoughness":{"baseColorFactor":[0.74509805,0.74509805,0.74509805,1.0],"metallicFactor":0.05,"roughnessFactor":0.5},"doubleSided":true},{"name":"#E0DFDBFF","pbrMetallicRoughness":{"baseColorFactor":[0.8784314,0.8745098,0.85882354,1.0],"metallicFactor":0.05,"roughnessFactor":0.5},"doubleSided":true},{"name":"#A0A0A0FF","pbrMetallicRoughness":{"baseColorFactor":[0.627451,0.627451,0.627451,1.0],"metallicFactor":0.05,"roughnessFactor":0.5},"doubleSided":true},{"name":"#1663FFFF","pbrMetallicRoughness":{"baseColorFactor":[0.08627451,0.3882353,1.0,1.0],"metallicFactor":0.05,"roughnessFactor":0.5},"doubleSided":true},{"name":"#EEFF07FF","pbrMetallicRoughness":{"baseColorFactor":[0.93333334,1.0,0.02745098,1.0],"metallicFactor":0.05,"roughnessFactor":0.5},"doubleSided":true},{"name":"#FF8567FF","pbrMetallicRoughness":{"baseColorFactor":[1.0,0.52156866,0.40392157,1.0],"metallicFactor":0.05,"roughnessFactor":0.5},"doubleSided":true},{"name":"#343434FF","pbrMetallicRoughness":{"baseColorFactor":[0.20392157,0.20392157,0.20392157,1.0],"metallicFactor":0.05,"roughnessFactor":0.5},"doubleSided":true},{"name":"#FFFFFFFF","pbrMetallicRoughness":{"baseColorFactor":[1.0,1.0,1.0,1.0],"metallicFactor":0.05,"roughnessFactor":0.5},"doubleSided":true},{"name":"#00407FFF","pbrMetallicRoughness":{"baseColorFactor":[0.0,0.2509804,0.49803922,1.0],"metallicFactor":0.05,"roughnessFactor":0.5},"doubleSided":true},{"name":"#BFBFBFFF","pbrMetallicRoughness":{"baseColorFactor":[0.7490196,0.7490196,0.7490196,1.0],"metallicFactor":0.05,"roughnessFactor":0.5},"doubleSided":true},{"name":"#BABABAFF","pbrMetallicRoughness":{"baseColorFactor":[0.7294118,0.7294118,0.7294118,1.0],"metallicFactor":0.05,"roughnessFactor":0.5},"doubleSided":true},{"name":"#D5C246FF","pbrMetallicRoughness":{"baseColorFactor":[0.8352941,0.7607843,0.27450982,1.0],"metallicFactor":0.05,"roughnessFactor":0.5},"doubleSided":true},{"name":"#000000FF","pbrMetallicRoughness":{"baseColorFactor":[0.0,0.0,0.0,1.0],"metallicFactor":0.05,"roughnessFactor":0.5},"doubleSided":true},{"name":"#E9D177FF","pbrMetallicRoughness":{"baseColorFactor":[0.9137255,0.81960785,0.46666667,1.0],"metallicFactor":0.05,"roughnessFactor":0.5},"doubleSided":true},{"name":"#B1B1B1FF","pbrMetallicRoughness":{"baseColorFactor":[0.69411767,0.69411767,0.69411767,1.0],"metallicFactor":0.05,"roughnessFactor":0.5},"doubleSided":true},{"name":"#AFA58EFF","pbrMetallicRoughness":{"baseColorFactor":[0.6862745,0.64705884,0.5568628,1.0],"metallicFactor":0.05,"roughnessFactor":0.5},"doubleSided":true},{"name":"#FFD272FF","pbrMetallicRoughness":{"baseColorFactor":[1.0,0.8235294,0.44705883,1.0],"metallicFactor":0.05,"roughnessFactor":0.5},"doubleSided":true},{"name":"#AF9F8EFF","pbrMetallicRoughness":{"baseColorFactor":[0.6862745,0.62352943,0.5568628,1.0],"metallicFactor":0.05,"roughnessFactor":0.5},"doubleSided":true},{"name":"#FF7F7FFF","pbrMetallicRoughness":{"baseColorFactor":[1.0,0.49803922,0.49803922,1.0],"metallicFactor":0.05,"roughnessFactor":0.5},"doubleSided":true},{"name":"#FFB822FF","pbrMetallicRoughness":{"baseColorFactor":[1.0,0.72156864,0.13333334,1.0],"metallicFactor":0.05,"roughnessFactor":0.5},"doubleSided":true},{"name":"#E1E1E1FF","pbrMetallicRoughness":{"baseColorFactor":[0.88235295,0.88235295,0.88235295,1.0],"metallicFactor":0.05,"roughnessFactor":0.5},"doubleSided":true},{"name":"#8A7E70FF","pbrMetallicRoughness":{"baseColorFactor":[0.5411765,0.49411765,0.4392157,1.0],"metallicFactor":0.05,"roughnessFactor":0.5},"doubleSided":true}],"meshes":[{"name":"Mesh0","primitives":[{"indices":1,"material":9,"attributes":{"POSITION":0}}]},{"name":"Mesh0","primitives":[{"indices":3,"material":9,"attributes":{"POSITION":2}}]},{"name":"Mesh0","primitives":[{"indices":5,"material":9,"attributes":{"POSITION":4}}]},{"name":"Mesh0","primitives":[{"indices":7,"material":9,"attributes":{"POSITION":6}}]},{"name":"Mesh0","primitives":[{"indices":9,"material":12,"attributes":{"POSITION":8}}]},{"name":"Mesh0","primitives":[{"indices":11,"material":8,"attributes":{"POSITION":10}}]},{"name":"Mesh0","primitives":[{"indices":13,"material":9,"attributes":{"POSITION":12}}]},{"name":"Mesh0","primitives":[{"indices":15,"material":10,"attributes":{"POSITION":14}}]},{"name":"Mesh0","primitives":[{"indices":17,"material":11,"attributes":{"POSITION":16}}]},{"name":"Mesh0","primitives":[{"indices":19,"material":13,"attributes":{"POSITION":18}}]},{"name":"Mesh0","primitives":[{"indices":21,"material":14,"attributes":{"POSITION":20}}]},{"name":"Mesh0","primitives":[{"indices":23,"material":15,"attributes":{"POSITION":22}}]},{"name":"Mesh0","primitives":[{"indices":25,"material":16,"attributes":{"POSITION":24}}]},{"name":"Mesh0","primitives":[{"indices":27,"material":0,"attributes":{"POSITION":26}}]},{"name":"Mesh0","primitives":[{"indices":29,"material":17,"attributes":{"POSITION":28}}]},{"name":"Mesh0","primitives":[{"indices":31,"material":1,"attributes":{"POSITION":30}}]},{"name":"Mesh0","primitives":[{"indices":33,"material":2,"attributes":{"POSITION":32}}]},{"name":"Mesh0","primitives":[{"indices":35,"material":3,"attributes":{"POSITION":34}}]},{"name":"Mesh0","primitives":[{"indices":37,"material":4,"attributes":{"POSITION":36}}]},{"name":"Mesh0","primitives":[{"indices":39,"material":5,"attributes":{"POSITION":38}}]},{"name":"Mesh0","primitives":[{"indices":41,"material":6,"attributes":{"POSITION":40}}]},{"name":"Mesh0","primitives":[{"indices":43,"material":7,"attributes":{"POSITION":42}}]},{"name":"Mesh0","primitives":[{"indices":45,"material":18,"attributes":{"POSITION":44}}]},{"name":"Mesh0","primitives":[{"indices":47,"material":19,"attributes":{"POSITION":46}}]},{"name":"Mesh0","primitives":[{"indices":49,"material":20,"attributes":{"POSITION":48}}]},{"name":"Mesh0","primitives":[{"indices":51,"material":21,"attributes":{"POSITION":50}}]}],"accessors":[{"bufferView":0,"componentType":5126,"count":5224,"type":"VEC3","min":[-71.335464,-6.675159,-27.128986],"max":[-2.4873495,3.3548412,26.672966]},{"bufferView":1,"componentType":5123,"count":24633,"type":"SCALAR"},{"bufferView":2,"componentType":5126,"count":6704,"type":"VEC3","min":[-69.46711,-6.695159,-26.171373],"max":[-3.4212878,-5.020159,26.672966]},{"bufferView":3,"componentType":5123,"count":25881,"type":"SCALAR"},{"bufferView":4,"componentType":5126,"count":6854,"type":"VEC3","min":[-69.062996,-7.035159,-26.259705],"max":[-8.08254,3.3548412,20.88616]},{"bufferView":5,"componentType":5123,"count":39990,"type":"SCALAR"},{"bufferView":6,"componentType":5126,"count":10055,"type":"VEC3","min":[-71.335464,-6.695159,-27.128986],"max":[-2.4873495,-5.020159,26.672966]},{"bufferView":7,"componentType":5123,"count":54672,"type":"SCALAR"},{"bufferView":8,"componentType":5126,"count":4197,"type":"VEC3","min":[-73.21795,-5.035159,-26.245296],"max":[-3.712973,5.964841,25.375998]},{"bufferView":9,"componentType":5123,"count":25638,"type":"SCALAR"},{"bufferView":10,"componentType":5126,"count":3840,"type":"VEC3","min":[-71.335464,-6.6851587,-27.118986],"max":[-2.4973986,-5.035159,26.672897]},{"bufferView":11,"componentType":5123,"count":24120,"type":"SCALAR"},{"bufferView":12,"componentType":5126,"count":4602,"type":"VEC3","min":[-64.768906,-5.035159,-19.293795],"max":[-10.751984,-2.675159,24.741209]},{"bufferView":13,"componentType":5123,"count":27051,"type":"SCALAR"},{"bufferView":14,"componentType":5126,"count":1107,"type":"VEC3","min":[-77.465744,-9.185159,-18.635803],"max":[-60.886677,6.014841,-4.908387]},{"bufferView":15,"componentType":5123,"count":6666,"type":"SCALAR"},{"bufferView":16,"componentType":5126,"count":2175,"type":"VEC3","min":[-76.05648,-6.9949665,-13.583407],"max":[-48.560234,2.6329374,-5.775388]},{"bufferView":17,"componentType":5123,"count":12861,"type":"SCALAR"},{"bufferView":18,"componentType":5126,"count":192,"type":"VEC3","min":[-55.654907,-8.285159,-21.548618],"max":[-4.5706635,3.4648411,1.7020191]},{"bufferView":19,"componentType":5123,"count":1008,"type":"SCALAR"},{"bufferView":20,"componentType":5126,"count":1821,"type":"VEC3","min":[-71.50423,-9.035159,15.101194],"max":[-59.28704,3.1648412,23.66546]},{"bufferView":21,"componentType":5123,"count":10938,"type":"SCALAR"},{"bufferView":22,"componentType":5126,"count":4915,"type":"VEC3","min":[-71.73779,-0.035158888,17.094687],"max":[-59.079174,2.964636,20.127209]},{"bufferView":23,"componentType":5123,"count":29478,"type":"SCALAR"},{"bufferView":24,"componentType":5126,"count":2552,"type":"VEC3","min":[-42.571087,-8.335159,5.7037745],"max":[-7.188047,-1.0351589,14.730737]},{"bufferView":25,"componentType":5123,"count":15312,"type":"SCALAR"},{"bufferView":26,"componentType":5126,"count":31495,"type":"VEC3","min":[-71.64474,-10.685159,-27.496923],"max":[102.4235,130.60287,90.77388]},{"bufferView":27,"componentType":5123,"count":189654,"type":"SCALAR"},{"bufferView":28,"componentType":5126,"count":1520,"type":"VEC3","min":[-63.86913,-8.035159,-25.185427],"max":[-6.1284513,3.369841,24.849741]},{"bufferView":29,"componentType":5123,"count":8952,"type":"SCALAR"},{"bufferView":30,"componentType":5126,"count":3546,"type":"VEC3","min":[70.00977,86.81199,65.820625],"max":[103.04637,98.43031,90.28662]},{"bufferView":31,"componentType":5123,"count":21312,"type":"SCALAR"},{"bufferView":32,"componentType":5126,"count":5148,"type":"VEC3","min":[16.714035,19.614841,-14.260181],"max":[76.44496,129.63875,30.796728]},{"bufferView":33,"componentType":5123,"count":31464,"type":"SCALAR"},{"bufferView":34,"componentType":5126,"count":7912,"type":"VEC3","min":[-0.7613262,-9.385159,-6.098636],"max":[74.25927,123.681816,57.25986]},{"bufferView":35,"componentType":5123,"count":46248,"type":"SCALAR"},{"bufferView":36,"componentType":5126,"count":144,"type":"VEC3","min":[5.1863503,-5.4351587,0.57143253],"max":[51.942863,115.020134,36.08093]},{"bufferView":37,"componentType":5123,"count":624,"type":"SCALAR"},{"bufferView":38,"componentType":5126,"count":144,"type":"VEC3","min":[5.8723917,-5.4351587,-0.5385675],"max":[51.07025,116.08431,36.32905]},{"bufferView":39,"componentType":5123,"count":624,"type":"SCALAR"},{"bufferView":40,"componentType":5126,"count":136,"type":"VEC3","min":[6.561592,-5.425794,-1.654577],"max":[50.194504,117.15426,36.572422]},{"bufferView":41,"componentType":5123,"count":588,"type":"SCALAR"},{"bufferView":42,"componentType":5126,"count":1234,"type":"VEC3","min":[-77.08321,-5.035159,-17.490177],"max":[61.448193,125.61553,30.78429]},{"bufferView":43,"componentType":5123,"count":6744,"type":"SCALAR"},{"bufferView":44,"componentType":5126,"count":734,"type":"VEC3","min":[-66.1466,-3.6251588,-24.638262],"max":[-63.14667,-1.9351588,-21.638752]},{"bufferView":45,"componentType":5123,"count":4392,"type":"SCALAR"},{"bufferView":46,"componentType":5126,"count":202,"type":"VEC3","min":[-68.65462,-4.2451625,-2.5294235],"max":[-65.52484,-4.0151587,2.0259588]},{"bufferView":47,"componentType":5123,"count":1212,"type":"SCALAR"},{"bufferView":48,"componentType":5126,"count":1968,"type":"VEC3","min":[-59.699062,-5.035159,-22.31592],"max":[-10.593271,-3.949159,1.4764565]},{"bufferView":49,"componentType":5123,"count":11712,"type":"SCALAR"},{"bufferView":50,"componentType":5126,"count":58,"type":"VEC3","min":[-31.595404,-5.035159,0.899908],"max":[-28.185877,-4.2251587,2.3232045]},{"bufferView":51,"componentType":5123,"count":336,"type":"SCALAR"}],"bufferViews":[{"target":34962,"buffer":0,"byteLength":62688,"byteOffset":0},{"target":34963,"buffer":0,"byteLength":49266,"byteOffset":62688},{"target":34962,"buffer":0,"byteLength":80448,"byteOffset":111956},{"target":34963,"buffer":0,"byteLength":51762,"byteOffset":192404},{"target":34962,"buffer":0,"byteLength":82248,"byteOffset":244168},{"target":34963,"buffer":0,"byteLength":79980,"byteOffset":326416},{"target":34962,"buffer":0,"byteLength":120660,"byteOffset":406396},{"target":34963,"buffer":0,"byteLength":109344,"byteOffset":527056},{"target":34962,"buffer":0,"byteLength":50364,"byteOffset":636400},{"target":34963,"buffer":0,"byteLength":51276,"byteOffset":686764},{"target":34962,"buffer":0,"byteLength":46080,"byteOffset":738040},{"target":34963,"buffer":0,"byteLength":48240,"byteOffset":784120},{"target":34962,"buffer":0,"byteLength":55224,"byteOffset":832360},{"target":34963,"buffer":0,"byteLength":54102,"byteOffset":887584},{"target":34962,"buffer":0,"byteLength":13284,"byteOffset":941688},{"target":34963,"buffer":0,"byteLength":13332,"byteOffset":954972},{"target":34962,"buffer":0,"byteLength":26100,"byteOffset":968304},{"target":34963,"buffer":0,"byteLength":25722,"byteOffset":994404},{"target":34962,"buffer":0,"byteLength":2304,"byteOffset":1020128},{"target":34963,"buffer":0,"byteLength":2016,"byteOffset":1022432},{"target":34962,"buffer":0,"byteLength":21852,"byteOffset":1024448},{"target":34963,"buffer":0,"byteLength":21876,"byteOffset":1046300},{"target":34962,"buffer":0,"byteLength":58980,"byteOffset":1068176},{"target":34963,"buffer":0,"byteLength":58956,"byteOffset":1127156},{"target":34962,"buffer":0,"byteLength":30624,"byteOffset":1186112},{"target":34963,"buffer":0,"byteLength":30624,"byteOffset":1216736},{"target":34962,"buffer":0,"byteLength":377940,"byteOffset":1247360},{"target":34963,"buffer":0,"byteLength":379308,"byteOffset":1625300},{"target":34962,"buffer":0,"byteLength":18240,"byteOffset":2004608},{"target":34963,"buffer":0,"byteLength":17904,"byteOffset":2022848},{"target":34962,"buffer":0,"byteLength":42552,"byteOffset":2040752},{"target":34963,"buffer":0,"byteLength":42624,"byteOffset":2083304},{"target":34962,"buffer":0,"byteLength":61776,"byteOffset":2125928},{"target":34963,"buffer":0,"byteLength":62928,"byteOffset":2187704},{"target":34962,"buffer":0,"byteLength":94944,"byteOffset":2250632},{"target":34963,"buffer":0,"byteLength":92496,"byteOffset":2345576},{"target":34962,"buffer":0,"byteLength":1728,"byteOffset":2438072},{"target":34963,"buffer":0,"byteLength":1248,"byteOffset":2439800},{"target":34962,"buffer":0,"byteLength":1728,"byteOffset":2441048},{"target":34963,"buffer":0,"byteLength":1248,"byteOffset":2442776},{"target":34962,"buffer":0,"byteLength":1632,"byteOffset":2444024},{"target":34963,"buffer":0,"byteLength":1176,"byteOffset":2445656},{"target":34962,"buffer":0,"byteLength":14808,"byteOffset":2446832},{"target":34963,"buffer":0,"byteLength":13488,"byteOffset":2461640},{"target":34962,"buffer":0,"byteLength":8808,"byteOffset":2475128},{"target":34963,"buffer":0,"byteLength":8784,"byteOffset":2483936},{"target":34962,"buffer":0,"byteLength":2424,"byteOffset":2492720},{"target":34963,"buffer":0,"byteLength":2424,"byteOffset":2495144},{"target":34962,"buffer":0,"byteLength":23616,"byteOffset":2497568},{"target":34963,"buffer":0,"byteLength":23424,"byteOffset":2521184},{"target":34962,"buffer":0,"byteLength":696,"byteOffset":2544608},{"target":34963,"buffer":0,"byteLength":672,"byteOffset":2545304}],"buffers":[{"byteLength":2545976,"uri":"data:application/octet-stream;base64,"}]}