{
    "asset": {
        "version": "2.0"
    },
    "scene": 0,
    "scenes": [
        {
            "nodes": [
                0
            ]
        }
    ],
    "nodes": [
        {
            "children": [
                1
            ],
            "matrix": [
                0.001,
                0,
                0,
                0,
                0,
                0.001,
                0,
                0,
                0,
                0,
                0.001,
                0,
                0,
                0,
                0,
                1
            ],
            "name": "Zigbee 4ch Relay",
            "extras": {
                "Dtk_PrototypeID": 1
            }
        },
        {
            "mesh": 0,
            "name": "Mesh"
        }
    ],
    "meshes": [
        {
            "primitives": [
                {
                    "attributes": {
                        "NORMAL": 2,
                        "POSITION": 1
                    },
                    "indices": 0,
                    "material": 0,
                    "mode": 4
                },
                {
                    "attributes": {
                        "NORMAL": 2,
                        "POSITION": 1
                    },
                    "indices": 3,
                    "material": 1,
                    "mode": 4
                },
                {
                    "attributes": {
                        "NORMAL": 2,
                        "POSITION": 1
                    },
                    "indices": 4,
                    "material": 2,
                    "mode": 4
                },
                {
                    "attributes": {
                        "NORMAL": 2,
                        "POSITION": 1
                    },
                    "indices": 5,
                    "material": 3,
                    "mode": 4
                },
                {
                    "attributes": {
                        "NORMAL": 2,
                        "POSITION": 1
                    },
                    "indices": 6,
                    "material": 4,
                    "mode": 4
                },
                {
                    "attributes": {
                        "NORMAL": 2,
                        "POSITION": 1
                    },
                    "indices": 7,
                    "material": 5,
                    "mode": 4
                }
            ]
        }
    ],
    "accessors": [
        {
            "bufferView": 0,
            "byteOffset": 0,
            "componentType": 5123,
            "count": 822,
            "max": [
                789
            ],
            "min": [
                0
            ],
            "type": "SCALAR"
        },
        {
            "bufferView": 1,
            "byteOffset": 0,
            "componentType": 5126,
            "count": 790,
            "max": [
                81,
                28,
                0
            ],
            "min": [
                -2.664535259e-15,
                0,
                -76
            ],
            "type": "VEC3"
        },
        {
            "bufferView": 1,
            "byteOffset": 9480,
            "componentType": 5126,
            "count": 790,
            "max": [
                1,
                1,
                1
            ],
            "min": [
                -1,
                -1,
                -1
            ],
            "type": "VEC3"
        },
        {
            "bufferView": 0,
            "byteOffset": 1644,
            "componentType": 5123,
            "count": 420,
            "max": [
                191
            ],
            "min": [
                24
            ],
            "type": "SCALAR"
        },
        {
            "bufferView": 0,
            "byteOffset": 2484,
            "componentType": 5123,
            "count": 126,
            "max": [
                311
            ],
            "min": [
                148
            ],
            "type": "SCALAR"
        },
        {
            "bufferView": 0,
            "byteOffset": 2736,
            "componentType": 5123,
            "count": 102,
            "max": [
                287
            ],
            "min": [
                252
            ],
            "type": "SCALAR"
        },
        {
            "bufferView": 0,
            "byteOffset": 2940,
            "componentType": 5123,
            "count": 240,
            "max": [
                443
            ],
            "min": [
                332
            ],
            "type": "SCALAR"
        },
        {
            "bufferView": 0,
            "byteOffset": 3420,
            "componentType": 5123,
            "count": 42,
            "max": [
                729
            ],
            "min": [
                718
            ],
            "type": "SCALAR"
        }
    ],
    "materials": [
        {
            "pbrMetallicRoughness": {
                "baseColorFactor": [
                    0.7960784314,
                    0.8235294118,
                    0.937254902,
                    1
                ],
                "metallicFactor": 0,
                "roughnessFactor": 1
            },
            "doubleSided": true,
            "alphaMode": "OPAQUE",
            "extras": {
                "Dtk_ColorId": 10
            }
        },
        {
            "pbrMetallicRoughness": {
                "baseColorFactor": [
                    0.6588235294,
                    0.6745098039,
                    0.6823529412,
                    1
                ],
                "metallicFactor": 0,
                "roughnessFactor": 1
            },
            "doubleSided": true,
            "alphaMode": "OPAQUE",
            "extras": {
                "Dtk_ColorId": 5
            }
        },
        {
            "pbrMetallicRoughness": {
                "baseColorFactor": [
                    0,
                    0,
                    0,
                    1
                ],
                "metallicFactor": 0,
                "roughnessFactor": 1
            },
            "doubleSided": true,
            "alphaMode": "OPAQUE",
            "extras": {
                "Dtk_ColorId": 3
            }
        },
        {
            "pbrMetallicRoughness": {
                "baseColorFactor": [
                    1,
                    1,
                    1,
                    1
                ],
                "metallicFactor": 0,
                "roughnessFactor": 1
            },
            "doubleSided": true,
            "alphaMode": "OPAQUE",
            "extras": {
                "Dtk_ColorId": 1
            }
        },
        {
            "pbrMetallicRoughness": {
                "baseColorFactor": [
                    0.2784313725,
                    1,
                    0.3333333333,
                    1
                ],
                "metallicFactor": 0,
                "roughnessFactor": 1
            },
            "doubleSided": true,
            "alphaMode": "OPAQUE",
            "extras": {
                "Dtk_ColorId": 7
            }
        },
        {
            "pbrMetallicRoughness": {
                "baseColorFactor": [
                    0,
                    0.9058823529,
                    0.09803921569,
                    1
                ],
                "metallicFactor": 0,
                "roughnessFactor": 1
            },
            "doubleSided": true,
            "alphaMode": "OPAQUE",
            "extras": {
                "Dtk_ColorId": 9
            }
        }
    ],
    "bufferViews": [
        {
            "buffer": 0,
            "byteOffset": 0,
            "byteLength": 3504,
            "target": 34963
        },
        {
            "buffer": 0,
            "byteOffset": 3504,
            "byteLength": 18960,
            "byteStride": 12,
            "target": 34962
        }
    ],
    "buffers": [
        {
            "byteLength": 22464,
            "uri": "Zigbee 4ch Relay.bin"
        }
    ]
}